<?xml version="1.0" encoding="utf-8"?>
<?xml-stylesheet type="text/xsl" href="rss1.xsl"?>
<rss version="2.0" xmlns:atom="http://www.w3.org/2005/Atom" xmlns:content="http://purl.org/rss/1.0/modules/content/" xmlns:dc="http://purl.org/dc/elements/1.1/" xmlns:media="http://search.yahoo.com/mrss/">
<channel>
 <title>Getty</title>
 <link>http://www.gettyimg.com/</link>
 <atom:link href="http://www.gettyimg.com/" rel="self" type="application/rss+xml" />

 
                <item>
                <title><![CDATA[【Albums (lossy)】MP3 - The Weeknd Free 3 Mixtapes - Original Download]]></title>
                <link><![CDATA[https://sharemania.us/threads/the-weeknd-free-3-mixtapes-original-download.251087/]]></link>
                <description><![CDATA[<article>
<blockquote class="messageText SelectQuoteContainer ugc baseHtml">
<b>HOUSE OF BALLOONS, THURSDAY, and ECHOES OF SILENCE downloaded directly from his website. </b><br>
<div class="bbCodeBlock bbCodeCode">
<div class="type">Code:</div>
<pre>General
Complete name                            : 01 High For This.mp3
Format                                   : MPEG Audio
File size                                : 14.0 MiB
Duration                                 : 4 min 8 s
Overall bit rate                         : 320 kb/s
Album                                    : House Of Balloons / House of Balloons
Album/Performer                          : The Weeknd
Track name                               : High For This
Track name/Position                      : 1 / 1
Track name/Total                         : 9 / 9
Performer                                : The Weeknd
Recorded date                            : 2011
Cover                                    : Yes / Yes
Cover MIME                               : JPG / image/jpeg
Comment                                  : 1 /  00000862 0000084F 000069C4 00005961 00024F1C 00024A93 00008000 00008000 00014812 00013563

Audio
Format                                   : MPEG Audio
Format version                           : Version 1
Format profile                           : Layer 3
Format settings                          : Joint stereo
Duration                                 : 4 min 8 s
Bit rate mode                            : Constant
Bit rate                                 : 320 kb/s
Channel(s)                               : 2 channels
Sampling rate                            : 44.1 kHz
Frame rate                               : 38.281 FPS (1152 SPF)
Compression mode                         : Lossy
Stream size                              : 9.50 MiB (68%)

Image
Format                                   : JPEG
Width                                    : 1 800 pixels
Height                                   : 1 800 pixels
Color space                              : YUV
Chroma subsampling                       : 4:4:4
Bit depth                                : 8 bits
Compression mode                         : Lossy
Stream size                              : 2.26 MiB (100%) / 2.26 MiB (100%) / 2.26 MiB (16%) / 2.26 MiB (16%) / 2.26 MiB (16%)
Color range                              : Full
Color primaries                          : BT.709
Transfer characteristics                 : sRGB/sYCC
Matrix coefficients                      : Identity
ColorSpace_ICC                           : RGB

</pre>
</div>
<div class="bbCodeBlock bbCodeVfcHH HiddenContent">
<div class="attribution type">Hidden Content:</div>
<blockquote>You must either reply or click 'Like' to see the hidden information contained here.</blockquote>
</div>
<div class="messageTextEndMarker">&nbsp;</div>
</blockquote>
</article>]]></description>
                <author><![CDATA[Trynuoclanh]]></author>
                </item>

                
                <item>
                <title><![CDATA[【Requests】[REQ AUD] - [REQ AUD] Cassie Trilogy Lossless FLAC]]></title>
                <link><![CDATA[https://sharemania.us/threads/req-aud-cassie-trilogy-lossless-flac.251086/]]></link>
                <description><![CDATA[<article>
<blockquote class="messageText SelectQuoteContainer ugc baseHtml">
Hello! I’m looking for the Cassie Trilogy mixtapes in FLAC quality and format.<br>
<br>
<a href="https://drive.google.com/drive/mobile/folders/1fLnTzmgTssG3nZ5UgkFQxWGizufEUtp-?usp=sharing" target="_blank" class="externalLink" rel="nofollow">https://drive.google.com/drive/mobile/folders/1fLnTzmgTssG3nZ5UgkFQxWGizufEUtp-?usp=sharing</a><br>
<br>
I would greatly appreciate it!
<div class="messageTextEndMarker">&nbsp;</div>
</blockquote>
</article>]]></description>
                <author><![CDATA[hyolee]]></author>
                </item>

                </channel></rss>